<?xml version="1.0" standalone="no"?>
<!DOCTYPE svg PUBLIC "-//W3C//DTD SVG 20010904//EN"
 "http://www.w3.org/TR/2001/REC-SVG-20010904/DTD/svg10.dtd">
<svg version="1.0" xmlns="http://www.w3.org/2000/svg"
 width="1080.000000pt" height="1080.000000pt" viewBox="0 0 1080.000000 1080.000000"
 preserveAspectRatio="xMidYMid meet">

<g transform="translate(0.000000,1080.000000) scale(0.100000,-0.100000)"
fill="#000000" stroke="none">
<path d="M5715 7253 c-11 -3 -74 -22 -140 -43 -113 -36 -231 -63 -386 -90 -79
-14 -116 -35 -155 -86 -41 -53 -46 -150 -12 -213 32 -60 78 -83 184 -91 140
-11 123 179 126 -1449 3 -1386 3 -1406 23 -1440 55 -93 165 -127 260 -81 44
22 115 106 115 137 0 20 11 17 112 -32 176 -84 320 -115 538 -115 220 1 384
44 558 149 453 272 663 776 551 1325 -85 418 -383 740 -776 838 -133 33 -352
31 -485 -5 -54 -14 -136 -46 -183 -70 l-85 -44 0 571 c0 368 -4 584 -11 609
-13 47 -63 106 -106 123 -32 14 -88 17 -128 7z m740 -1627 c129 -34 218 -114
290 -259 68 -138 87 -222 92 -414 8 -241 -20 -400 -97 -558 -93 -192 -241
-286 -429 -272 -101 8 -200 56 -269 131 -88 97 -83 50 -80 693 l3 568 63 42
c88 59 165 82 282 82 52 1 118 -5 145 -13z"/>
<path d="M3890 6086 c-206 -63 -265 -79 -388 -101 -73 -14 -145 -31 -160 -39
-86 -45 -125 -161 -87 -253 33 -79 77 -104 198 -114 48 -4 94 -13 102 -19 22
-18 23 -1341 1 -1363 -9 -9 -48 -16 -103 -21 -100 -7 -147 -27 -180 -75 -25
-37 -38 -106 -29 -154 9 -49 61 -123 100 -141 43 -20 47 -20 371 -12 149 4
353 3 455 -2 214 -10 256 -3 308 51 89 92 68 257 -39 313 -16 8 -70 18 -119
23 -50 5 -93 11 -97 14 -18 18 -22 145 -23 654 l0 562 84 65 c134 105 223 145
254 114 22 -22 14 -82 -14 -109 -14 -13 -34 -40 -44 -60 -55 -107 82 -229 259
-229 175 0 307 97 368 272 82 237 -37 517 -254 598 -163 61 -348 19 -574 -128
l-75 -49 -11 60 c-20 102 -91 168 -183 166 -25 0 -79 -10 -120 -23z"/>
<path d="M1865 6084 c-140 -19 -192 -30 -270 -56 -274 -89 -415 -256 -416
-493 0 -99 14 -161 55 -240 58 -113 152 -182 274 -205 176 -32 372 85 372 222
0 51 -26 96 -64 112 -70 29 -98 130 -58 206 24 45 108 96 171 105 68 9 193
-10 249 -39 28 -14 60 -41 76 -64 47 -68 56 -119 56 -303 l0 -168 -52 -5 c-29
-3 -129 -13 -223 -22 -295 -28 -492 -72 -622 -138 -276 -139 -393 -319 -394
-603 0 -190 49 -311 181 -444 97 -97 180 -145 315 -180 93 -24 279 -28 385 -9
162 29 349 107 433 180 25 22 48 40 52 40 4 0 26 -20 48 -46 104 -118 266
-186 441 -185 157 1 295 52 333 123 25 47 24 143 -2 188 -25 43 -94 80 -151
80 -52 0 -86 26 -107 82 -14 38 -17 121 -20 658 -3 593 -4 618 -24 692 -56
199 -157 317 -347 407 -149 71 -289 100 -511 106 -82 2 -163 2 -180 -1z m443
-1413 c-4 -125 -5 -130 -42 -207 -51 -102 -114 -164 -213 -212 -65 -31 -89
-37 -163 -40 -99 -5 -148 10 -177 54 -29 45 -26 222 5 289 42 90 93 129 232
175 85 29 272 67 334 69 l28 1 -4 -129z"/>
<path d="M8605 6079 c-81 -12 -225 -54 -290 -85 -217 -102 -421 -307 -526
-529 -88 -188 -123 -340 -122 -550 0 -162 18 -279 64 -416 60 -179 131 -299
254 -427 158 -166 354 -267 595 -308 150 -25 402 -16 525 19 178 50 327 138
452 264 80 80 177 206 193 248 18 46 12 119 -13 166 -35 65 -102 104 -182 104
-76 0 -117 -25 -160 -98 -41 -69 -170 -198 -225 -224 -205 -99 -512 -51 -644
100 -85 96 -154 265 -171 412 -3 33 -9 72 -11 87 l-5 27 563 3 563 3 65 28
c155 66 218 197 192 397 -50 369 -278 650 -604 744 -142 41 -366 56 -513 35z
m301 -397 c95 -49 159 -161 171 -297 5 -69 4 -74 -20 -99 l-26 -26 -341 0
c-187 0 -340 2 -340 4 0 2 11 43 25 91 54 184 131 283 264 336 65 27 208 22
267 -9z"/>
<path d="M1080 3205 l0 -55 55 0 55 0 0 55 0 55 -55 0 -55 0 0 -55z"/>
<path d="M1300 3205 l0 -55 55 0 55 0 0 55 0 55 -55 0 -55 0 0 -55z"/>
<path d="M1520 3205 l0 -55 55 0 55 0 0 55 0 55 -55 0 -55 0 0 -55z"/>
<path d="M1740 3205 l0 -55 55 0 55 0 0 55 0 55 -55 0 -55 0 0 -55z"/>
<path d="M1960 3205 l0 -55 55 0 55 0 0 55 0 55 -55 0 -55 0 0 -55z"/>
<path d="M2180 3205 l0 -55 55 0 55 0 0 55 0 55 -55 0 -55 0 0 -55z"/>
<path d="M2400 3205 l0 -55 55 0 55 0 0 55 0 55 -55 0 -55 0 0 -55z"/>
<path d="M2620 3205 l0 -55 55 0 55 0 0 55 0 55 -55 0 -55 0 0 -55z"/>
<path d="M2840 3205 l0 -55 55 0 55 0 0 55 0 55 -55 0 -55 0 0 -55z"/>
<path d="M3060 3205 l0 -55 55 0 55 0 0 55 0 55 -55 0 -55 0 0 -55z"/>
<path d="M3280 3205 l0 -55 55 0 55 0 0 55 0 55 -55 0 -55 0 0 -55z"/>
<path d="M3500 3205 l0 -55 55 0 55 0 0 55 0 55 -55 0 -55 0 0 -55z"/>
<path d="M3720 3205 l0 -55 55 0 55 0 0 55 0 55 -55 0 -55 0 0 -55z"/>
<path d="M3940 3205 l0 -55 55 0 55 0 0 55 0 55 -55 0 -55 0 0 -55z"/>
<path d="M4160 3205 l0 -55 55 0 55 0 0 55 0 55 -55 0 -55 0 0 -55z"/>
<path d="M4380 3205 l0 -55 55 0 55 0 0 55 0 55 -55 0 -55 0 0 -55z"/>
<path d="M4600 3205 l0 -55 55 0 55 0 0 55 0 55 -55 0 -55 0 0 -55z"/>
<path d="M4820 3205 l0 -55 55 0 55 0 0 55 0 55 -55 0 -55 0 0 -55z"/>
<path d="M5040 3205 l0 -55 55 0 55 0 0 55 0 55 -55 0 -55 0 0 -55z"/>
<path d="M5260 3205 l0 -55 55 0 55 0 0 55 0 55 -55 0 -55 0 0 -55z"/>
<path d="M5480 3205 l0 -55 55 0 55 0 0 55 0 55 -55 0 -55 0 0 -55z"/>
<path d="M5700 3205 l0 -55 55 0 55 0 0 55 0 55 -55 0 -55 0 0 -55z"/>
<path d="M5920 3205 l0 -55 55 0 55 0 0 55 0 55 -55 0 -55 0 0 -55z"/>
<path d="M6140 3205 l0 -55 55 0 55 0 0 55 0 55 -55 0 -55 0 0 -55z"/>
<path d="M6360 3205 l0 -55 55 0 55 0 0 55 0 55 -55 0 -55 0 0 -55z"/>
<path d="M6580 3205 l0 -55 55 0 55 0 0 55 0 55 -55 0 -55 0 0 -55z"/>
<path d="M6800 3205 l0 -55 55 0 55 0 0 55 0 55 -55 0 -55 0 0 -55z"/>
<path d="M7020 3205 l0 -55 55 0 55 0 0 55 0 55 -55 0 -55 0 0 -55z"/>
<path d="M7240 3205 l0 -55 55 0 55 0 0 55 0 55 -55 0 -55 0 0 -55z"/>
<path d="M7460 3205 l0 -55 55 0 55 0 0 55 0 55 -55 0 -55 0 0 -55z"/>
<path d="M7680 3205 l0 -55 55 0 55 0 0 55 0 55 -55 0 -55 0 0 -55z"/>
<path d="M7900 3205 l0 -55 55 0 55 0 0 55 0 55 -55 0 -55 0 0 -55z"/>
<path d="M8120 3205 l0 -55 55 0 55 0 0 55 0 55 -55 0 -55 0 0 -55z"/>
<path d="M8340 3205 l0 -55 55 0 55 0 0 55 0 55 -55 0 -55 0 0 -55z"/>
<path d="M8560 3205 l0 -55 55 0 55 0 0 55 0 55 -55 0 -55 0 0 -55z"/>
<path d="M8780 3205 l0 -55 55 0 55 0 0 55 0 55 -55 0 -55 0 0 -55z"/>
<path d="M9000 3205 l0 -55 55 0 55 0 0 55 0 55 -55 0 -55 0 0 -55z"/>
<path d="M9220 3205 l0 -55 55 0 55 0 0 55 0 55 -55 0 -55 0 0 -55z"/>
<path d="M9440 3205 l0 -55 55 0 55 0 0 55 0 55 -55 0 -55 0 0 -55z"/>
<path d="M9660 3205 c0 -54 0 -55 30 -55 30 0 30 1 30 55 0 54 0 55 -30 55
-30 0 -30 -1 -30 -55z"/>
</g>
</svg>
