<?xml version="1.0" standalone="no"?>
<!DOCTYPE svg PUBLIC "-//W3C//DTD SVG 20010904//EN"
 "http://www.w3.org/TR/2001/REC-SVG-20010904/DTD/svg10.dtd">
<svg version="1.0" xmlns="http://www.w3.org/2000/svg"
 width="1080.000000pt" height="1080.000000pt" viewBox="0 0 1080.000000 1080.000000"
 preserveAspectRatio="xMidYMid meet">

<g transform="translate(0.000000,1080.000000) scale(0.100000,-0.100000)"
fill="#000000" stroke="none">
<path d="M4947 7949 c-302 -17 -598 -80 -850 -180 -593 -236 -867 -599 -867
-1150 0 -319 107 -593 313 -799 165 -165 377 -250 625 -250 192 0 323 41 493
156 110 74 142 107 188 193 93 176 38 426 -101 456 -50 11 -81 38 -134 116
-45 65 -49 76 -52 141 -8 141 33 244 135 338 130 119 252 155 493 147 187 -7
286 -29 416 -92 74 -36 103 -57 149 -107 65 -73 116 -170 147 -283 20 -75 22
-106 26 -482 l3 -401 -63 -6 c-35 -3 -153 -13 -263 -21 -514 -40 -1066 -116
-1330 -184 -473 -123 -927 -393 -1144 -681 -188 -250 -281 -563 -281 -943 0
-253 51 -480 151 -680 122 -241 377 -498 641 -645 159 -88 387 -158 612 -188
149 -20 507 -14 661 11 455 72 867 254 1150 508 l49 44 58 -78 c168 -225 450
-397 777 -472 131 -30 460 -32 591 -4 133 29 290 83 355 122 85 52 121 90 163
174 37 74 37 76 37 195 -1 101 -5 130 -23 177 -64 161 -174 229 -398 248 -143
11 -156 20 -224 156 l-55 110 -6 1420 c-5 1281 -7 1430 -22 1520 -66 384 -184
631 -407 856 -124 126 -234 201 -435 300 -246 120 -526 200 -821 234 -284 33
-492 39 -757 24z m980 -3306 c-4 -219 -8 -269 -25 -333 -42 -156 -108 -291
-208 -423 -81 -108 -158 -173 -301 -253 -212 -119 -289 -139 -533 -139 -159 0
-180 3 -233 24 -114 45 -159 124 -179 309 -20 190 17 404 94 542 113 204 320
322 733 420 180 43 543 105 633 109 l24 1 -5 -257z"/>
</g>
</svg>
